<svg width="76" height="83" viewBox="0 0 76 83" fill="none" xmlns="http://www.w3.org/2000/svg">
<mask id="mask0_29_21" style="mask-type:alpha" maskUnits="userSpaceOnUse" x="-1" y="0" width="77" height="83">
<path d="M54.7029 5.32954C37.6507 -3.58144 22.2539 3.30192 16.687 7.85748C-0.540997 20.8764 -1.13675 40.9313 0.718873 49.3315C4.0004 67.343 17.0288 76.5331 23.1328 78.8767C39.4819 86.3973 54.6052 78.5871 60.1232 73.7418C72.4289 64.6413 75.1635 47.9885 74.9926 40.7997C74.5238 20.7658 61.2708 8.80545 54.7029 5.32954Z" fill="#F25353" stroke="black"/>
</mask>
<g mask="url(#mask0_29_21)">
<rect width="77" height="84" fill="#5C9DFF"/>
<path d="M51.686 73.308C51.362 73.308 51.29 73.056 51.47 72.552C51.686 72.084 51.884 71.652 52.064 71.256C52.388 70.608 52.55 69.6 52.55 68.232C52.55 67.044 52.334 65.766 51.902 64.398C51.47 63.03 50.624 61.788 49.364 60.672C47.636 59.088 45.692 57.828 43.532 56.892C41.372 55.956 39.104 55.2 36.728 54.624C34.388 54.048 32.066 53.544 29.762 53.112C28.358 55.056 26.846 56.802 25.226 58.35C23.642 59.898 21.95 61.086 20.15 61.914C19.142 62.382 18.17 62.724 17.234 62.94C16.298 63.192 15.416 63.318 14.588 63.318C12.572 63.318 10.916 62.778 9.62 61.698C8.36 60.654 7.73 59.412 7.73 57.972C7.73 56.604 8.342 55.272 9.566 53.976C10.826 52.644 12.896 51.546 15.776 50.682C16.928 50.358 18.206 50.124 19.61 49.98C21.014 49.8 22.472 49.71 23.984 49.71C24.92 49.71 25.838 49.746 26.738 49.818C27.674 49.854 28.538 49.962 29.33 50.142C30.374 48.558 31.346 46.92 32.246 45.228C33.146 43.5 34.082 41.628 35.054 39.612C32.21 39.684 29.744 39.27 27.656 38.37C25.568 37.434 23.948 36.192 22.796 34.644C21.68 33.096 21.122 31.44 21.122 29.676C21.122 28.236 21.536 26.832 22.364 25.464C23.192 24.06 24.488 22.8 26.252 21.684C28.052 20.532 30.338 19.632 33.11 18.984C33.29 18.912 33.452 18.876 33.596 18.876C33.776 18.876 33.938 18.876 34.082 18.876C34.622 18.876 34.892 18.984 34.892 19.2C34.892 19.56 34.316 19.812 33.164 19.956C31.292 20.172 29.636 20.838 28.196 21.954C26.792 23.07 25.694 24.402 24.902 25.95C24.146 27.498 23.768 29.064 23.768 30.648C23.768 32.016 24.092 33.294 24.74 34.482C25.388 35.67 26.414 36.642 27.818 37.398C29.222 38.118 31.04 38.478 33.272 38.478C34.064 38.478 34.91 38.424 35.81 38.316C35.954 38.028 36.188 37.452 36.512 36.588C36.872 35.688 37.268 34.68 37.7 33.564C38.132 32.448 38.546 31.368 38.942 30.324C39.374 29.28 39.716 28.416 39.968 27.732C40.256 27.012 40.4 26.652 40.4 26.652C42.056 22.512 43.748 19.272 45.476 16.932C47.24 14.556 48.932 12.882 50.552 11.91C52.208 10.938 53.684 10.452 54.98 10.452C56.384 10.452 57.536 10.866 58.436 11.694C59.372 12.522 59.876 13.458 59.948 14.502C59.984 14.826 60.002 15.06 60.002 15.204C60.002 15.348 60.002 15.528 60.002 15.744C60.002 17.868 59.57 19.992 58.706 22.116C57.878 24.24 56.708 26.256 55.196 28.164C53.72 30.072 52.01 31.8 50.066 33.348C48.158 34.896 46.106 36.192 43.91 37.236C41.75 38.28 39.554 39 37.322 39.396C36.782 40.476 36.296 41.448 35.864 42.312C35.468 43.14 35.018 44.04 34.514 45.012C34.01 45.984 33.344 47.226 32.516 48.738C32.264 49.206 32.066 49.548 31.922 49.764C31.814 49.944 31.634 50.232 31.382 50.628C33.182 51.06 35.144 51.672 37.268 52.464C39.392 53.22 41.48 54.138 43.532 55.218C45.62 56.262 47.474 57.414 49.094 58.674C51.11 60.222 52.532 61.968 53.36 63.912C54.224 65.856 54.656 67.566 54.656 69.042C54.656 70.086 54.494 70.878 54.17 71.418C53.702 72.21 53.234 72.714 52.766 72.93C52.298 73.182 51.938 73.308 51.686 73.308ZM38.078 37.938C40.526 37.398 42.92 36.426 45.26 35.022C47.6 33.582 49.706 31.854 51.578 29.838C53.45 27.786 54.944 25.572 56.06 23.196C57.176 20.784 57.734 18.336 57.734 15.852C57.734 15.24 57.572 14.736 57.248 14.34C56.924 13.944 56.456 13.746 55.844 13.746C55.016 13.746 53.954 14.214 52.658 15.15C51.362 16.05 49.886 17.58 48.23 19.74C46.574 21.864 44.792 24.798 42.884 28.542C42.884 28.542 42.632 29.01 42.128 29.946C41.66 30.882 41.048 32.07 40.292 33.51C39.572 34.914 38.834 36.39 38.078 37.938ZM13.832 61.752C14.624 61.752 15.47 61.644 16.37 61.428C17.306 61.212 18.278 60.87 19.286 60.402C22.31 58.926 25.1 56.37 27.656 52.734C26.828 52.554 25.964 52.428 25.064 52.356C24.164 52.248 23.246 52.194 22.31 52.194C21.338 52.194 20.33 52.248 19.286 52.356C18.278 52.464 17.288 52.662 16.316 52.95C13.904 53.598 12.05 54.426 10.754 55.434C9.494 56.442 8.864 57.468 8.864 58.512C8.864 59.412 9.314 60.168 10.214 60.78C11.114 61.428 12.32 61.752 13.832 61.752Z" fill="black"/>
</g>
</svg>
